
        <svg xmlns="http://www.w3.org/2000/svg" xmlns:xlink="http://www.w3.org/1999/xlink" version="1.1" width="50px" height="39px" viewBox="0 0 50 39">
			
			<g transform="scale(10.344827586206897) translate(10, 10)">
				<defs id="SvgjsDefs1902"><linearGradient id="SvgjsLinearGradient1907"><stop id="SvgjsStop1908" stop-color="#51504f" offset="0"/><stop id="SvgjsStop1909" stop-color="#939598" offset="0.5"/><stop id="SvgjsStop1910" stop-color="#51504f" offset="1"/></linearGradient></defs><g id="SvgjsG1903" featureKey="symbolFeature-0" transform="matrix(0.26815750415581596,0,0,0.26815750415581596,64.67505077449374,-87.67993579832923)" fill="#000"><path xmlns="http://www.w3.org/2000/svg" d="M224.715,540.928h-31.753v-44.762h-11.034v-41.689h-6.132v-11.5h-13.462v12.13h-6.291v41.188h-6.126v13.335  H34.045c-1.657,0-3-1.343-3-3s1.343-3,3-3h109.871v-13.335h6.126v-41.188h6.291v-12.13h25.462v11.5h6.132v41.689h11.034v44.762  h19.753v-77.871h7.968v-64.988h4.908v-43.531h35.431v41.689h14.101v64.382h6.744v76.029h24.88l12.387-8.587h22.285l3.732,3.729  v-66.27h9.811v-7.968h31.753v6.744h9.191v32.497h34.952v15.937h13.62v-49.007l19.798-4.947h50.579v37.399h47.918  c1.657,0,3,1.343,3,3s-1.343,3-3,3h-53.918v-37.399h-43.841l-14.536,3.633v50.321h-25.62v-15.937h-34.952v-32.497h-9.191v-6.744  h-19.753v7.968h-9.811v74.748l-12.217-12.208h-17.924l-12.387,8.587h-32.757v-76.029h-6.744v-64.382h-14.101v-41.689h-23.431v43.531  h-4.908v64.988h-7.968V540.928z"/><path xmlns="http://www.w3.org/2000/svg" d="M241.336,353.19c-1.399,0-2.534-1.134-2.534-2.534v-37.172c0-1.399,1.134-2.534,2.534-2.534  s2.534,1.134,2.534,2.534v37.172C243.87,352.056,242.735,353.19,241.336,353.19z"/><path xmlns="http://www.w3.org/2000/svg" d="M256.667,353.19c-1.399,0-2.534-1.134-2.534-2.534v-39.796c0-1.399,1.134-2.534,2.534-2.534  s2.534,1.134,2.534,2.534v39.796C259.2,352.056,258.066,353.19,256.667,353.19z"/><path xmlns="http://www.w3.org/2000/svg" d="M368.864,457.543c-1.657,0-3-1.343-3-3v-16.555c0-1.657,1.343-3,3-3s3,1.343,3,3v16.555  C371.864,456.2,370.521,457.543,368.864,457.543z"/><path xmlns="http://www.w3.org/2000/svg" d="M382.965,457.543c-1.657,0-3-1.343-3-3v-16.322c0-1.657,1.343-3,3-3s3,1.343,3,3v16.322  C385.965,456.2,384.622,457.543,382.965,457.543z"/></g><g id="SvgjsG1904" featureKey="nameFeature-0" transform="matrix(0.8092442034249334,0,0,0.8092442034249334,-1.4389179009785646,72.78543717229668)" fill="#000"><path d="M8.7891 34.8242 l13.555 0 l0 5.1758 l-20.566 0 l0 -4.6289 l13.379 -18.438 l-13.359 0 l0 -5.1563 l20.293 0 l0 4.6289 z M48.623515624999996 16.934 l-10.469 0 l0 6.4063 l9.2773 0 l0 5.0977 l-9.2773 0 l0 6.3867 l10.469 0 l0 5.1758 l-16.367 0 l0 -28.223 l16.367 0 l0 5.1563 z M59.199175 40 l0 -28.223 l10.215 0 c9.0039 0 13.457 5.6641 13.457 14.102 c0 8.457 -4.4531 14.121 -13.457 14.121 l-10.215 0 z M65.058575 34.8242 l4.0625 0 c5.1953 0 7.5781 -3.2422 7.5781 -8.9453 s-2.3828 -8.9453 -7.5781 -8.9453 l-4.0625 0 l0 17.891 z M105.400046875 40.39063 c-8.3008 0 -14.434 -5.6445 -14.434 -14.512 s6.1328 -14.492 14.434 -14.492 c6.2891 0 11.328 3.2227 13.34 8.5742 l-5.4688 1.9922 c-1.25 -3.2813 -4.2383 -5.1758 -7.8711 -5.1758 c-4.8633 0 -8.5938 3.3984 -8.5938 9.1016 s3.7305 9.1211 8.5938 9.1211 c3.6328 0 6.6211 -1.9141 7.8711 -5.1953 l5.4688 1.9922 c-2.0117 5.3516 -7.0508 8.5938 -13.34 8.5938 z M140.58559375 40.39063 c-8.3008 0 -14.434 -5.6641 -14.434 -14.512 c0 -8.8672 6.1328 -14.492 14.434 -14.492 c8.2813 0 14.414 5.625 14.414 14.492 c0 8.8477 -6.1328 14.512 -14.414 14.512 z M140.58559375 35.0195 c4.8633 0 8.5938 -3.418 8.5938 -9.1406 c0 -5.7031 -3.7305 -9.1016 -8.5938 -9.1016 s-8.5938 3.3984 -8.5938 9.1016 c0 5.7227 3.7305 9.1406 8.5938 9.1406 z M197.275296875 40 l-5.8398 0 l-1.8555 -21.27 l-7.1484 21.27 l-3.7891 0 l-7.1484 -21.27 l-1.875 21.27 l-5.8594 0 l2.3633 -28.223 l8.3594 0 l6.0156 17.715 l6.0938 -17.715 l8.3594 0 z M240.292875 40 l-5.8398 0 l-1.8555 -21.27 l-7.1484 21.27 l-3.7891 0 l-7.1484 -21.27 l-1.875 21.27 l-5.8594 0 l2.3633 -28.223 l8.3594 0 l6.0156 17.715 l6.0938 -17.715 l8.3594 0 z M267.334453125 16.934 l-10.469 0 l0 6.4063 l9.2773 0 l0 5.0977 l-9.2773 0 l0 6.3867 l10.469 0 l0 5.1758 l-16.367 0 l0 -28.223 l16.367 0 l0 5.1563 z M292.8128125 40 l-7.3438 -12.422 l-1.6992 0 l0 12.422 l-5.8594 0 l0 -28.223 l10.234 0 c6.3867 0 9.082 3.7695 9.082 8.4375 c0 3.7891 -2.1484 6.25 -5.9766 7.0703 l8.4961 12.715 l-6.9336 0 z M283.7695125 16.641 l0 6.7383 l3.457 0 c3.125 0 4.3945 -1.3281 4.3945 -3.3594 c0 -2.0117 -1.2695 -3.3789 -4.3945 -3.3789 l-3.457 0 z M321.083640625 40.39063 c-8.3008 0 -14.434 -5.6445 -14.434 -14.512 s6.1328 -14.492 14.434 -14.492 c6.2891 0 11.328 3.2227 13.34 8.5742 l-5.4688 1.9922 c-1.25 -3.2813 -4.2383 -5.1758 -7.8711 -5.1758 c-4.8633 0 -8.5938 3.3984 -8.5938 9.1016 s3.7305 9.1211 8.5938 9.1211 c3.6328 0 6.6211 -1.9141 7.8711 -5.1953 l5.4688 1.9922 c-2.0117 5.3516 -7.0508 8.5938 -13.34 8.5938 z M360.1371875 16.934 l-10.469 0 l0 6.4063 l9.2773 0 l0 5.0977 l-9.2773 0 l0 6.3867 l10.469 0 l0 5.1758 l-16.367 0 l0 -28.223 l16.367 0 l0 5.1563 z"/></g>
			</g>
		</svg>
	